<svg xmlns="http://www.w3.org/2000/svg" width="1440" height="854" viewBox="0 0 1440 854">
  <g fill="none" fill-rule="evenodd">
    <path fill="#F7F7DC" d="M622.113208,-350.849057 C814.432577,-350.849057 978.822063,-231.267009 1044.98304,-62.4015411 L1044.97046,-62.4024963 C1085.86977,-74.5041579 1129.17629,-81 1174,-81 C1424.73728,-81 1628,122.262724 1628,373 C1628,623.737276 1424.73728,827 1174,827 C1129.86463,827 1087.2002,820.702132 1046.85637,808.956044 L1046.86713,808.952712 C992.244583,837.718974 930.02361,854 864,854 C785.330937,854 712.060638,830.885144 650.610304,791.076634 C616.004824,799.522536 579.836617,804 542.622642,804 C497.626214,804 454.158687,797.454 413.12041,785.262351 C360.24472,811.740994 300.562463,826.641509 237.400003,826.641509 C20.3520968,826.641509 -155.599997,650.689416 -155.599997,433.641509 C-155.599997,238.991003 -14.0876568,77.3924741 171.668799,46.1141472 L171.660724,46.1206094 C199.711692,-177.696839 390.691516,-350.849057 622.113208,-350.849057 Z"/>
    <g transform="translate(55 109)">
      <circle cx="62" cy="62" r="62" fill="#FDEC98"/>
      <circle cx="507" cy="731" r="12" fill="#FDC98E"/>
      <circle cx="87" cy="361" r="5" fill="#38B6BD"/>
    </g>
  </g>
</svg>
